<?xml version="1.0" encoding="utf-8"?>
<!-- Generator: Adobe Illustrator 26.1.0, SVG Export Plug-In . SVG Version: 6.00 Build 0)  -->
<svg version="1.1" id="a" xmlns="http://www.w3.org/2000/svg" xmlns:xlink="http://www.w3.org/1999/xlink" x="0px" y="0px"
	 viewBox="0 0 140.3 145.1" style="enable-background:new 0 0 140.3 145.1;" xml:space="preserve">
<style type="text/css">
	.st0{fill:#EFFFFA;}
	.st1{fill:none;stroke:#9C89B8;stroke-linecap:round;stroke-miterlimit:10;}
</style>
<g>
	<path class="st0" d="M137.3,89.8c1.2,0.4,2.1,0.7,3,0.9l-0.5,1.5l-1.6-0.4v0c0.9,1.1,1.2,2.3,0.7,3.8c-0.7,2.2-3.1,3.3-5.9,2.4
		c-3.3-1.1-4.3-3.6-3.6-5.8c0.4-1.2,1.3-2.1,2.4-2.4v0l-5-1.6l0.5-1.7L137.3,89.8L137.3,89.8z M134.3,90.7c-0.2-0.1-0.5-0.1-0.7-0.2
		c-1.3-0.1-2.4,0.7-2.8,1.9c-0.6,1.8,0.5,3.3,2.6,3.9c1.9,0.6,3.7,0.1,4.3-1.6c0.4-1.1-0.1-2.5-1.2-3.2c-0.2-0.1-0.4-0.3-0.6-0.3
		L134.3,90.7L134.3,90.7z"/>
	<path class="st0" d="M128.1,107.6c-3.2-1.6-3.4-4.6-2.4-6.6c1.2-2.3,3.8-3.2,6.6-1.8c2.9,1.5,3.6,4.2,2.4,6.6
		C133.4,108.2,130.7,109,128.1,107.6z M131.5,100.7c-1.9-1-3.9-0.6-4.7,0.9c-0.8,1.5,0.1,3.3,2,4.3c1.5,0.8,3.7,1,4.6-0.9
		S133.2,101.6,131.5,100.7L131.5,100.7z"/>
	<path class="st0" d="M128.3,110.2c0.9,0.7,1.8,1.2,2.5,1.6l-0.9,1.3l-1.6-1l0,0.1c0.8,1.1,0.9,2.4,0.2,3.4
		c-0.1,0.2-0.2,0.3-0.3,0.4l-1.4-0.9c0.1-0.1,0.2-0.3,0.4-0.5c0.7-1,0.4-2.3-0.5-3.2c-0.2-0.2-0.4-0.4-0.6-0.5l-4.3-2.9l1-1.4
		L128.3,110.2L128.3,110.2z"/>
	<path class="st0" d="M127.3,121.2l-2.1-1.8l-1.6,1.9l-1-0.9l1.6-1.9l-4-3.4c-0.9-0.8-1.7-1-2.3-0.2c-0.3,0.3-0.5,0.7-0.6,0.9
		l-1.1-0.8c0.1-0.3,0.4-0.8,0.8-1.3c0.5-0.6,1.2-1,1.8-1c0.7-0.1,1.5,0.4,2.4,1.1l4,3.4l1-1.1l1,0.9l-1,1.1l1.8,1.5L127.3,121.2
		L127.3,121.2z"/>
	<path class="st0" d="M115.1,116.2l5.9,5.9l1-1l0.9,0.9l-1,1l0.3,0.3c1,1,1.6,2.1,1.6,3.2c0,0.9-0.5,1.7-1.1,2.3
		c-0.4,0.4-0.9,0.7-1.3,0.9l-0.8-1.1c0.3-0.1,0.6-0.3,0.9-0.6c1.1-1.1,0.4-2.3-0.6-3.3l-0.4-0.4l-1.7,1.6L118,125l1.7-1.6l-5.9-5.9
		L115.1,116.2L115.1,116.2z"/>
	<path class="st0" d="M107.9,128.8c-2.2-2.8-1.2-5.6,0.6-7c2.1-1.6,4.8-1.3,6.7,1.1c2,2.6,1.5,5.4-0.6,7
		C112.4,131.5,109.7,131.1,107.9,128.8L107.9,128.8z M113.9,124c-1.3-1.7-3.2-2.2-4.6-1.1c-1.3,1-1.3,3.1,0,4.8
		c1,1.3,2.9,2.4,4.6,1.1C115.5,127.5,115,125.4,113.9,124L113.9,124z"/>
	<path class="st0" d="M111,137.6l-1.5,0.9l-7.4-12.1l1.5-0.9C103.6,125.5,111,137.6,111,137.6z"/>
	<path class="st0" d="M99.9,127.7l4.5,8.6l-1.6,0.8l-4.5-8.6L99.9,127.7L99.9,127.7z M103.9,139.6c-0.3-0.5-0.1-1.1,0.5-1.5
		c0.6-0.3,1.2-0.1,1.4,0.5c0.3,0.6,0.1,1.2-0.5,1.5C104.8,140.4,104.2,140.1,103.9,139.6L103.9,139.6z"/>
	<path class="st0" d="M90,137.3c-1.3-3.3,0.5-5.7,2.7-6.5c2.4-0.9,5,0.1,6.1,3c1.2,3-0.1,5.6-2.6,6.5C93.6,141.2,91.1,140,90,137.3z
		 M97.1,134.4c-0.8-2-2.5-3-4.1-2.4c-1.6,0.6-2.2,2.5-1.4,4.6c0.6,1.5,2.1,3.2,4,2.4S97.8,136.1,97.1,134.4z"/>
	<path class="st0" d="M76.5,135.3c0.4-0.3,1.4-0.8,2.7-1c2.9-0.5,5.1,1.2,5.6,4.1c0.5,2.9-1.2,5.4-4.3,5.9c-1,0.2-2,0.1-2.5-0.1
		l0.2-1.4c0.4,0.2,1.1,0.3,2.1,0.1c2.2-0.4,3.1-2.2,2.8-4.2c-0.4-2.2-2-3.3-3.9-3c-1,0.2-1.6,0.5-2.1,0.8L76.5,135.3L76.5,135.3z"/>
	<path class="st0" d="M66.8,140.2c-0.1-3.6,2.4-5.2,4.7-5.2c2.6-0.1,4.7,1.8,4.7,4.9c0.1,3.2-2,5.2-4.7,5.2
		C68.8,145.1,66.9,143.1,66.8,140.2z M74.5,139.9c0-2.1-1.3-3.7-3-3.7c-1.7,0-2.9,1.6-2.9,3.8c0,1.6,0.9,3.7,3,3.7
		S74.6,141.8,74.5,139.9L74.5,139.9z"/>
	<path class="st0" d="M64.5,142.3c-0.2,1-0.3,1.8-0.4,2.6l-1.5-0.3l0.2-1.6h-0.1c-0.7,0.8-1.7,1.5-3.3,1.2c-1.3-0.2-2.1-1.2-2.3-2.4
		h0c-0.4,0.5-0.8,0.8-1.3,1c-0.7,0.3-1.3,0.4-2.2,0.3c-1.3-0.2-3-1.4-2.4-4.7l1-5.6l1.7,0.3l-1,5.4c-0.3,1.8,0.1,3.1,1.5,3.3
		c1,0.2,1.9-0.4,2.3-1.2c0.1-0.2,0.2-0.5,0.3-0.8l1-5.9l1.7,0.3l-1,5.7c-0.3,1.5,0.2,2.7,1.5,3c1.1,0.2,2-0.5,2.5-1.4
		c0.1-0.2,0.2-0.5,0.3-0.8l1-5.8l1.7,0.3L64.5,142.3L64.5,142.3z"/>
	<path class="st0" d="M44.6,143.1c0.2-0.6,0.8-0.9,1.4-0.7c0.6,0.2,0.8,0.8,0.7,1.4c-0.2,0.6-0.8,0.9-1.4,0.7
		C44.7,144.3,44.4,143.7,44.6,143.1L44.6,143.1z M50.5,132l-3.2,9.1l-1.7-0.6l3.2-9.1L50.5,132z"/>
	<path class="st0" d="M43.8,137.2c-0.4,0.9-0.8,1.6-1.1,2.4l-1.4-0.7l0.6-1.5l0,0c-0.8,0.6-2.2,0.9-3.7,0.3
		c-1.2-0.6-2.7-2.2-1.3-5.2l2.5-5.2L41,128l-2.4,5c-0.7,1.4-0.7,2.8,0.8,3.6c1,0.5,2.2,0.1,2.9-0.6c0.2-0.2,0.3-0.4,0.5-0.7l2.5-5.2
		l1.6,0.8L43.8,137.2L43.8,137.2z"/>
	<path class="st0" d="M25.5,129.5c0.4-0.6,0.9-1.2,1.6-2.1l3.2-4.6c1.3-1.8,2.4-2.7,3.7-2.8c1.3-0.2,2.5,0.4,3.5,1.1
		c1,0.7,1.8,1.6,2.2,2.5l-1.1,0.8c-0.3-0.7-0.9-1.6-1.9-2.2c-1.5-1-3.1-1-4.5,1l-0.6,0.9l0,0c1-0.4,2.2-0.4,3.5,0.4
		c2,1.4,2.2,4,0.7,6.2c-1.9,2.7-4.7,3-6.5,1.7c-1.4-1-1.6-2.2-1.5-3.1l0,0l-0.9,1.1L25.5,129.5L25.5,129.5z M29.1,127.4
		c-0.2,0.2-0.3,0.5-0.4,0.7c-0.3,1-0.1,2.2,1,2.9c1.4,1,3.2,0.5,4.5-1.4c1.1-1.6,1.2-3.4-0.4-4.5c-0.9-0.6-2.1-0.6-3,0.1
		c-0.2,0.2-0.5,0.4-0.6,0.7L29.1,127.4L29.1,127.4z"/>
	<path class="st0" d="M25.6,119.1c-0.1-0.6-0.5-1.5-1.1-2.2c-0.9-0.9-1.8-0.9-2.3-0.4c-0.6,0.6-0.6,1.3,0,2.5
		c0.8,1.7,0.6,2.9-0.2,3.7c-1.1,1.1-2.9,1.1-4.4-0.4c-0.7-0.7-1.1-1.5-1.2-2.1l1.2-0.6c0.1,0.4,0.3,1.2,1,1.8
		c0.7,0.8,1.6,0.8,2.1,0.2c0.6-0.6,0.4-1.2-0.1-2.5c-0.7-1.7-0.7-2.9,0.4-3.8c1.2-1.2,3-1.1,4.6,0.6c0.7,0.8,1.2,1.7,1.4,2.4
		L25.6,119.1L25.6,119.1z"/>
	<path class="st0" d="M12.7,108.5c2.9-2.1,5.6-1,7,0.9c1.5,2.1,1.2,4.9-1.3,6.7c-2.6,1.9-5.4,1.3-7-0.8
		C9.8,112.9,10.3,110.2,12.7,108.5z M17.3,114.6c1.7-1.2,2.3-3.2,1.3-4.6c-1-1.4-3-1.4-4.8-0.2c-1.3,1-2.5,2.8-1.3,4.5
		S15.9,115.7,17.3,114.6L17.3,114.6z"/>
	<path class="st0" d="M7.8,99c3.2-1.6,5.7-0.1,6.8,1.9c1.2,2.3,0.4,5-2.3,6.4c-2.9,1.5-5.5,0.4-6.8-1.9C4.2,102.9,5.1,100.3,7.8,99z
		 M11.4,105.8c1.9-1,2.8-2.8,2-4.3c-0.8-1.5-2.7-1.9-4.7-0.9c-1.5,0.8-2.9,2.4-2,4.3S9.7,106.6,11.4,105.8L11.4,105.8z"/>
	<path class="st0" d="M5,97.8c-0.9,0.3-1.7,0.6-2.5,0.9l-0.5-1.5l1.5-0.6v0c-1-0.2-2.2-1-2.7-2.5c-0.4-1.3-0.3-3.5,2.9-4.5l5.5-1.8
		l0.5,1.7l-5.3,1.7c-1.5,0.5-2.5,1.4-2,3c0.4,1.1,1.4,1.7,2.4,1.7c0.2,0,0.5,0,0.8-0.1l5.5-1.8l0.5,1.7L5,97.8L5,97.8z"/>
</g>
<g>
	<path class="st0" d="M3,55.2c-1.2-0.4-2.1-0.7-3-0.9l0.5-1.5l1.6,0.4v0c-0.9-1-1.2-2.3-0.7-3.8c0.7-2.2,3.2-3.3,5.9-2.4
		c3.3,1.1,4.3,3.6,3.6,5.8c-0.4,1.2-1.3,2.1-2.4,2.4v0l5,1.6L13,58.5L3,55.2L3,55.2z M6,54.4c0.2,0.1,0.5,0.1,0.7,0.2
		c1.3,0.1,2.4-0.7,2.8-1.9c0.6-1.8-0.5-3.3-2.7-4c-1.8-0.6-3.7-0.1-4.3,1.6c-0.4,1.1,0.1,2.5,1.2,3.2c0.2,0.1,0.4,0.3,0.7,0.3
		L6,54.4z"/>
	<path class="st0" d="M12.2,37.4c3.2,1.6,3.4,4.6,2.4,6.6c-1.2,2.3-3.8,3.2-6.6,1.8c-2.9-1.5-3.6-4.2-2.4-6.6
		C6.9,36.8,9.6,36.1,12.2,37.4z M8.8,44.3c1.9,1,3.9,0.6,4.7-0.9c0.8-1.5-0.1-3.3-2-4.3c-1.5-0.8-3.7-1-4.6,0.9S7.1,43.5,8.8,44.3z"
		/>
	<path class="st0" d="M11.9,34.8c-0.9-0.7-1.8-1.2-2.5-1.6l0.9-1.3l1.6,1l0-0.1c-0.8-1.1-0.9-2.4-0.2-3.4c0.1-0.2,0.2-0.3,0.3-0.4
		l1.4,0.9c-0.1,0.1-0.2,0.3-0.4,0.5c-0.7,1-0.4,2.3,0.5,3.2c0.2,0.2,0.4,0.4,0.6,0.5l4.3,2.9l-1,1.4L11.9,34.8L11.9,34.8z"/>
	<path class="st0" d="M13,23.8l2.1,1.8l1.6-1.9l1,0.9l-1.6,1.9l4,3.4c0.9,0.8,1.6,1,2.3,0.2c0.3-0.4,0.5-0.6,0.6-0.9L24,30
		c-0.1,0.4-0.4,0.8-0.8,1.4c-0.5,0.6-1.1,1-1.8,1c-0.7,0-1.5-0.4-2.4-1.1l-4-3.4l-1,1.1l-1-0.9l1-1.1l-1.8-1.5
		C12.2,25.4,13,23.8,13,23.8z"/>
	<path class="st0" d="M25.2,28.8l-5.9-5.9l-1,1l-0.9-1l1-1l-0.3-0.3c-1-1-1.6-2.1-1.6-3.2c0-0.9,0.5-1.7,1-2.3
		c0.4-0.4,0.9-0.7,1.3-0.8l0.8,1.1c-0.3,0.1-0.6,0.3-1,0.6c-1.1,1-0.4,2.3,0.6,3.3l0.4,0.4l1.7-1.6l0.9,1l-1.7,1.6l5.9,5.9
		L25.2,28.8L25.2,28.8z"/>
	<path class="st0" d="M32.4,16.3c2.2,2.8,1.2,5.6-0.6,7c-2.1,1.6-4.8,1.3-6.7-1.1c-2-2.6-1.5-5.4,0.6-7
		C27.9,13.5,30.6,13.9,32.4,16.3L32.4,16.3z M26.4,21.1c1.3,1.7,3.2,2.2,4.6,1.1c1.3-1,1.3-3,0-4.8c-1-1.3-2.9-2.4-4.6-1.1
		C24.8,17.6,25.2,19.6,26.4,21.1L26.4,21.1z"/>
	<path class="st0" d="M29.3,7.4l1.5-0.9l7.4,12.1l-1.5,0.9C36.7,19.5,29.3,7.4,29.3,7.4z"/>
	<path class="st0" d="M36.4,5.5c0.3,0.5,0.1,1.2-0.5,1.5c-0.5,0.3-1.2,0.1-1.4-0.5C34.2,5.9,34.4,5.3,35,5
		C35.5,4.7,36.1,4.9,36.4,5.5L36.4,5.5z M40.4,17.4l-4.5-8.6L37.5,8l4.5,8.6L40.4,17.4L40.4,17.4z"/>
	<path class="st0" d="M50.3,7.8c1.3,3.3-0.5,5.7-2.7,6.5c-2.4,0.9-5-0.1-6.1-3c-1.2-3,0.1-5.6,2.6-6.5C46.7,3.8,49.2,5,50.3,7.8z
		 M43.1,10.6c0.8,2,2.5,3,4.1,2.4c1.6-0.6,2.2-2.5,1.4-4.6c-0.6-1.5-2.1-3.2-4-2.4C42.6,6.8,42.5,8.9,43.1,10.6z"/>
	<path class="st0" d="M63.8,9.7c-0.4,0.3-1.4,0.8-2.7,1c-2.9,0.5-5.1-1.2-5.5-4.1c-0.5-2.9,1.2-5.4,4.3-5.9c1-0.2,2-0.1,2.5,0.1
		l-0.2,1.4C61.7,2,61,1.9,60.1,2.1c-2.2,0.4-3.1,2.2-2.8,4.2c0.4,2.2,2,3.3,3.9,3c1-0.2,1.6-0.5,2.1-0.8L63.8,9.7L63.8,9.7z"/>
	<path class="st0" d="M73.4,4.9c0.1,3.6-2.4,5.2-4.7,5.2c-2.6,0.1-4.7-1.8-4.7-4.9C63.9,2,66,0.1,68.7,0C71.5-0.1,73.4,1.9,73.4,4.9
		z M65.8,5.1c0,2.1,1.3,3.7,3,3.7c1.7,0,2.9-1.6,2.9-3.8c0-1.6-0.9-3.7-3-3.7S65.7,3.3,65.8,5.1L65.8,5.1z"/>
	<path class="st0" d="M75.8,2.7c0.2-1,0.3-1.8,0.4-2.6l1.5,0.3l-0.2,1.5h0.1c0.7-0.8,1.7-1.5,3.3-1.2C82.1,1,83,1.9,83.2,3.1h0
		c0.4-0.5,0.8-0.8,1.3-1c0.7-0.3,1.3-0.5,2.2-0.3c1.3,0.2,3,1.4,2.4,4.7l-1,5.6l-1.7-0.3l1-5.4c0.3-1.8-0.1-3-1.5-3.3
		c-1-0.2-1.9,0.4-2.3,1.2c-0.1,0.2-0.2,0.5-0.3,0.8l-1.1,5.9l-1.7-0.3l1-5.7c0.3-1.5-0.2-2.7-1.5-3c-1.1-0.2-2,0.5-2.5,1.3
		c-0.1,0.2-0.2,0.5-0.3,0.8l-1,5.8l-1.7-0.3L75.8,2.7L75.8,2.7z"/>
	<path class="st0" d="M89.8,13l3.2-9.1l1.7,0.6l-3.2,9.1L89.8,13z M95.7,1.9c-0.2,0.6-0.8,0.9-1.4,0.7c-0.6-0.2-0.8-0.8-0.7-1.4
		c0.2-0.6,0.8-0.9,1.4-0.7C95.6,0.8,95.9,1.3,95.7,1.9z"/>
	<path class="st0" d="M96.5,7.9C97,7,97.3,6.2,97.6,5.5L99,6.1l-0.6,1.5l0,0c0.8-0.6,2.2-0.9,3.7-0.3c1.2,0.6,2.7,2.2,1.3,5.2
		l-2.5,5.2L99.3,17l2.4-5c0.7-1.4,0.7-2.8-0.8-3.6C99.9,7.9,98.7,8.3,98,9c-0.2,0.2-0.3,0.4-0.5,0.7L95.1,15l-1.6-0.8L96.5,7.9
		L96.5,7.9z"/>
	<path class="st0" d="M114.8,15.5c-0.4,0.5-0.9,1.2-1.6,2.1l-3.2,4.6c-1.3,1.8-2.4,2.7-3.7,2.8c-1.3,0.2-2.6-0.4-3.6-1.1
		c-0.9-0.7-1.8-1.6-2.2-2.5l1.1-0.9c0.3,0.7,0.9,1.6,1.9,2.2c1.5,1,3.1,1,4.5-1l0.6-0.9l0,0c-1,0.4-2.2,0.4-3.4-0.4
		c-2-1.4-2.2-4-0.7-6.2c1.9-2.7,4.7-3,6.5-1.7c1.4,1,1.6,2.2,1.5,3.1l0,0l0.9-1.1L114.8,15.5L114.8,15.5z M111.2,17.6
		c0.2-0.2,0.3-0.5,0.4-0.7c0.3-1,0.1-2.2-1-2.9c-1.4-1-3.2-0.5-4.4,1.4c-1.1,1.6-1.2,3.4,0.4,4.5c0.9,0.6,2.1,0.6,3-0.1
		c0.2-0.2,0.5-0.5,0.7-0.7L111.2,17.6L111.2,17.6z"/>
	<path class="st0" d="M114.7,25.9c0.1,0.6,0.5,1.5,1.1,2.2c0.9,0.9,1.8,0.9,2.3,0.4c0.6-0.6,0.6-1.3,0-2.5c-0.8-1.7-0.6-2.9,0.2-3.7
		c1.1-1.1,2.9-1.1,4.4,0.4c0.7,0.7,1.1,1.5,1.2,2.1l-1.2,0.6c-0.1-0.4-0.3-1.2-1-1.8c-0.7-0.8-1.6-0.8-2.1-0.2
		c-0.6,0.5-0.4,1.2,0.1,2.5c0.7,1.6,0.7,2.9-0.3,3.9c-1.2,1.2-3,1.1-4.6-0.6c-0.7-0.8-1.2-1.6-1.4-2.4L114.7,25.9L114.7,25.9z"/>
	<path class="st0" d="M127.6,36.6c-2.9,2.1-5.6,1-7-0.9c-1.5-2.1-1.2-4.9,1.3-6.7c2.6-1.9,5.4-1.3,7,0.9
		C130.5,32.1,129.9,34.8,127.6,36.6z M122.9,30.4c-1.7,1.2-2.3,3.2-1.3,4.6c1,1.4,3,1.4,4.8,0.2c1.3-1,2.5-2.8,1.3-4.5
		S124.4,29.3,122.9,30.4L122.9,30.4z"/>
	<path class="st0" d="M132.5,46.1c-3.2,1.6-5.7,0.1-6.8-2c-1.2-2.3-0.4-5,2.3-6.4c2.9-1.5,5.5-0.5,6.8,1.9
		C136.1,42.1,135.1,44.7,132.5,46.1L132.5,46.1z M128.9,39.3c-1.9,1-2.8,2.8-2,4.3c0.8,1.5,2.7,1.9,4.7,0.9c1.5-0.8,2.9-2.4,2-4.3
		S130.6,38.4,128.9,39.3L128.9,39.3z"/>
	<path class="st0" d="M135.2,47.2c0.9-0.3,1.7-0.6,2.5-0.9l0.5,1.5l-1.5,0.6v0c1,0.2,2.2,1,2.7,2.5c0.4,1.3,0.3,3.5-2.9,4.5
		l-5.5,1.8l-0.5-1.7l5.3-1.7c1.5-0.5,2.5-1.4,2-3c-0.4-1.1-1.4-1.7-2.4-1.7c-0.2,0-0.5,0-0.8,0.1l-5.5,1.8l-0.5-1.7L135.2,47.2
		L135.2,47.2z"/>
</g>
<path class="st1" d="M136.9,59.7c1.2,6.3,1.2,12.8,1.2,12.8s0,6-1,11.9"/>
<path class="st1" d="M3.2,84.3c-1-5.8-1-11.7-1-11.7c0-2.1-0.1-6.8,1.2-12.8"/>
</svg>
